# Blender3D v248 OBJ File: 
# www.blender3d.org
mtllib test.mtl
v 4.000000 -0.000000 -4.000000
v 4.000000 0.000000 4.000000
v -4.000000 0.000000 3.999999
v -3.999999 -0.000000 -4.000001
v 9.000000 1.000000 -4.000000
v 9.000000 1.000000 4.000000
vt -1.500000 -1.500000
vt 2.500000 -1.500000
vt 2.500000 2.500000
vt -1.500000 2.500000
vn -0.196116 0.980581 -0.000000
vn 0.000000 1.000000 -0.000000
usemtl None_dalle.bmp
s off
f 1/1/1 2/2/1 6/3/1
f 1/1/1 6/3/1 5/4/1
f 1/1/2 4/2/2 3/3/2
f 1/1/2 3/3/2 2/4/2
